<svg  id="Слой_1" data-name="Слой 1" xmlns="http://www.w3.org/2000/svg" viewBox="0 0 1084.75 578.44"><defs><style>.cls-1{fill:#fff;stroke:#000;stroke-miterlimit:10;stroke-width:23.91px;}</style></defs><title>logo</title><path class="cls-1" d="M1538.75,1005.4v68q0,71.13-30.45,122.15t-83.85,78.53q-53.39,27.53-122.31,27.55-4.59,0-9.11-.12-71.28-1.89-126-33.49a227.18,227.18,0,0,1-68.9-61,251.67,251.67,0,0,1-21.76-34.61,273.18,273.18,0,0,1-25.13-71.65q37.83-36,61.19-63.7,31-36.72,43.15-66.91A162.37,162.37,0,0,0,1167.71,909q0-47.28-24.3-83.84a151.84,151.84,0,0,0-13-16.91,235.14,235.14,0,0,1,68.69-42.38q46.42-18.69,100.67-18.71,46.42,0,86.5,13.33T1457.44,798a205.21,205.21,0,0,1,50.86,57.61A195.26,195.26,0,0,1,1533.66,929H1416.17a120.14,120.14,0,0,0-15.74-34.12,100.15,100.15,0,0,0-24.72-25.31,111.75,111.75,0,0,0-33.11-16,143.68,143.68,0,0,0-41-5.53q-41.91,0-73.56,20.56t-49.28,59.7q-17.61,39.13-17.6,95.54t17.33,95.91q17.4,39.54,49.16,60.22t75,20.7q39.25,0,67.18-13.83t42.72-39.15c9.36-16,14.32-34.81,14.76-56.39H1309.88V1005.4Z" transform="translate(-465.94 -735.15)"/><path class="cls-1" d="M1167.71,909a162.37,162.37,0,0,1-12.14,61.14q-12.18,30.21-43.15,66.91-23.36,27.7-61.19,63.7a372.22,372.22,0,0,1-7.32-75.81q0-65.61,19.36-117.13t54.36-87.38q6.19-6.36,12.77-12.18a151.84,151.84,0,0,1,13,16.91Q1167.71,861.7,1167.71,909Z" transform="translate(-465.94 -735.15)"/><path class="cls-1" d="M909.17,1301.52H781.55L678,1105h12.79q59.47,0,102.4-18.82l44.77,83.1Z" transform="translate(-465.94 -735.15)"/><path class="cls-1" d="M889.51,919.13q-1.74-49.26-22.92-86.63A152.38,152.38,0,0,0,835,793.33a167.35,167.35,0,0,0-35.38-23.9q-43.92-22.33-105.9-22.33H477.9v554.42H593.54V1105h97.2q59.47,0,102.4-18.82c1.71-.75,3.41-1.5,5.08-2.3q44.47-21.12,68-60.78t23.49-94.88C889.69,925.17,889.63,922.12,889.51,919.13ZM759.77,974q-10.8,18.42-32.72,27.61t-55,9.21h-78.5V842.93h78q33.35,0,55.4,9.86t32.84,28.84q10.8,19,10.81,46.58Q770.58,955.56,759.77,974Z" transform="translate(-465.94 -735.15)"/><path class="cls-1" d="M1167,1268a227.18,227.18,0,0,1-68.9-61H945.27v-3.74l79.84-78.23q13.83-12.57,26.12-24.29,37.83-36,61.19-63.7,31-36.72,43.15-66.91A162.37,162.37,0,0,0,1167.71,909q0-47.28-24.3-83.84a151.84,151.84,0,0,0-13-16.91q-21.93-24.72-55-40.38-43.65-20.7-102.4-20.71-57.15,0-100.94,21.64A171.89,171.89,0,0,0,835,793.33a152.47,152.47,0,0,1,31.64,39.18q21.15,37.32,22.92,86.62c.48-15.74,3.86-29.49,10.1-41.14a70,70,0,0,1,28.83-29.11q18.7-10.12,43.78-10.13,24.07,0,43,9.47a72.82,72.82,0,0,1,29.91,27q10.93,17.52,11,41.53a92.81,92.81,0,0,1-8.81,40.19q-8.83,18.55-25.79,37.8t-41.77,43.24L837.91,1169.26l71.27,132.26H1293Q1221.75,1299.63,1167,1268Z" transform="translate(-465.94 -735.15)"/></svg>